PathFileType	4	(X/Y/Z)	Patient4_TMGait_0pt8_01_right_49.trc.trc
DataRate	CameraRate	NumFrames	NumMarkers	Units	OrigDataRate	OrigDataStartFrame	OrigNumFrames
88.050314465409	88.050314465409	5	33	mm	88.050314465409	36	       141
Frame#	Time	Sacral			L.Shoulder			Chest			R.Shoulder			Neck			R.ASIS			L.ASIS			R.Thigh.Superior			R.Thigh.Lateral			R.Thigh.Inferior			R.Patella			L.Thigh.Superior			L.Thigh.Lateral			L.Thigh.Inferior			L.Patella			L.Shank.Superior			L.Shank.Lateral			L.Shank.Inferior			R.Shank.Superior			R.Shank.Lateral			R.Shank.Inferior			R.Heel			R.Midfoot.Superior			R.Midfoot.Lateral			R.Toe			L.Heel			L.Midfoot.Lateral			L.Midfoot.Superior			L.Toe			L.Elbow			L.Wrist			R.Elbow			R.Wrist			
		X1	Y1	Z1	X2	Y2	Z2	X3	Y3	Z3	X4	Y4	Z4	X5	Y5	Z5	X6	Y6	Z6	X7	Y7	Z7	X8	Y8	Z8	X9	Y9	Z9	X10	Y10	Z10	X11	Y11	Z11	X12	Y12	Z12	X13	Y13	Z13	X14	Y14	Z14	X15	Y15	Z15	X16	Y16	Z16	X17	Y17	Z17	X18	Y18	Z18	X19	Y19	Z19	X20	Y20	Z20	X21	Y21	Z21	X22	Y22	Z22	X23	Y23	Z23	X24	Y24	Z24	X25	Y25	Z25	X26	Y26	Z26	X27	Y27	Z27	X28	Y28	Z28	X29	Y29	Z29	X30	Y30	Z30	X31	Y31	Z31	X32	Y32	Z32	X33	Y33	Z33	

36	55.567500000000	925.508939069320	994.414147587165	510.485451439515	1094.421566808358	1430.191785977789	337.486134447790	1189.508047101330	1363.578355058874	505.038806772553	1091.611446377052	1430.206400878025	674.006566449259	1062.819730622132	1488.270730182489	493.560484872585	1148.252050552048	943.354074180324	642.771397101904	1145.932190701054	952.208715485040	366.793344343771	1214.940988704339	751.850624684485	617.252590537818	1143.827403182392	635.034243926197	674.412124007464	1230.647764291324	591.786215555884	598.979817048549	1241.612674427822	504.094266775349	606.372259255461	1172.412492138363	727.266043547538	388.063216372217	1076.751933539850	620.840500983044	316.670286034237	1156.839606910025	528.426998929498	372.125934584539	1141.188076917746	443.575530204010	365.603435601010	1066.829085142574	391.844309539506	359.552198997790	921.986230845528	361.436877870399	314.652205203875	899.674486016755	233.070354564300	367.427479984699	1223.882040498740	413.106047444706	612.050064391678	1162.043836625248	301.778418659446	670.211322050556	1217.787720703685	212.083091990091	609.642682445532	1099.754170973737	43.630608362141	575.464261714815	1270.202192932547	98.582388516931	612.382575367220	1182.788180806688	37.482130639373	651.182554175782	1390.796607332538	46.843523314080	640.727173584076	706.091890860233	185.853015387806	411.590460404224	754.915275117417	130.381139715505	332.624525739239	860.418758353184	129.590384451138	349.507563763666	926.389231287363	29.921070229843	326.843915125715	1129.920518462119	1089.520742391635	202.042496809465	1383.310350156621	1093.270892855564	217.620711394933	962.247072775174	1104.485010969485	765.817723164095	928.299573963123	847.517767207845	773.918968872126	
37	55.578857142857	925.511219799218	996.083846060215	514.286621212282	1093.246936404268	1431.485567861817	339.504292878144	1189.584494225012	1365.141647993867	506.449340950851	1092.881353998754	1431.941508637082	675.922392516109	1062.612256118577	1489.657718909634	495.586123541987	1148.932028909617	944.802643460175	645.213328902449	1145.542298912328	953.691524283981	369.411751508782	1212.976841093869	751.253212191103	621.008419174198	1139.418168183348	635.331276045050	676.874686575664	1226.109780515474	591.090342969644	601.847695433298	1235.671376808192	503.484355689847	608.542427010347	1177.550155415580	730.475248102127	390.592489358055	1086.090847675505	621.642469118403	318.318430279698	1169.134575476224	531.144124106986	373.639028638423	1154.819249054898	445.200981544256	366.675384346090	1078.951385499849	393.544777720300	360.540331116360	932.984670209995	368.072397404552	315.546329473440	906.803860334586	240.187612339540	367.844276440857	1217.344795477619	412.745872538141	613.882056088916	1154.560785561201	301.686236711834	671.429197087190	1209.742351516343	211.817495100201	610.540738423023	1090.840754299803	43.625601000055	575.675985276525	1261.213338196078	98.685151302636	612.640038670953	1173.837282218377	37.486564512950	651.391569788727	1381.812593463731	46.765512045408	641.112889658722	712.142131621948	202.653694309186	411.692496195159	757.888191904964	144.277229408950	332.641955538328	863.535460355944	136.675711079070	349.727097270701	922.259940150721	29.504853807149	326.664576426925	1123.367077324326	1088.537758103309	207.819181698637	1377.250706038087	1080.511618783866	220.698135822759	969.407128193546	1103.456869633398	769.575504640216	946.221349910691	845.208543744430	777.597540103196	
38	55.590214285714	925.304119246911	997.601784451552	518.055934818726	1091.743954422489	1432.562149125405	341.450235431673	1189.532898367570	1366.463761133985	507.654782481525	1094.282668825870	1433.395697026213	677.811641548329	1062.364991824515	1490.868983006439	497.607729474234	1149.474671466230	946.002477972099	647.370792616306	1145.028623495656	955.096462083434	371.726386969045	1210.692413448173	750.506170939136	624.564603857737	1134.727716574138	635.526843977085	679.165807495894	1221.231852889549	590.316201002301	604.514092201592	1229.360847443947	502.849663380112	610.550134525000	1182.447275101682	733.942952444462	392.855348997457	1095.069093329676	622.841994304890	319.866853544805	1181.007495657583	534.398514951080	375.088009138849	1168.251809565023	447.451785647823	367.886880719551	1091.171039561023	395.682296285744	361.660817077332	944.385649685189	374.515208685748	316.442336802869	914.737286081908	247.205707232633	368.484901117537	1210.549296538945	412.364944359896	615.547077407868	1146.929732073797	301.552320713816	672.552596828006	1201.602208961805	211.555401946355	611.367549080230	1081.891841437430	43.638483200745	575.860168680108	1252.233623545874	98.726509912218	612.853994690203	1164.858238818628	37.473474099268	651.554065311180	1372.828412999338	46.549072630994	641.428502383461	719.483027993461	218.042648687585	412.048638197700	762.507878670435	157.480701884728	332.811989733098	868.020712690304	144.023033823125	350.130823465854	920.268574474747	29.849271422359	326.374943581177	1116.854745314166	1087.529593173425	213.379436419200	1370.635527788435	1066.632115985702	223.687092064659	976.728186557449	1102.307236520892	773.381996674726	965.203880906065	843.104575779054	781.312732734512	
39	55.601571428571	924.888778992744	998.977248729028	521.750637808984	1089.942216047145	1433.442760943096	343.319881871580	1189.353468570668	1367.546447541150	508.658398003649	1095.808659703506	1434.584662596745	679.665348972606	1062.091540892771	1491.932711041299	499.609592012807	1149.866697871436	946.991746935786	649.273643265975	1144.379220529734	956.436968394176	373.740709562380	1208.153652157202	749.705228282406	627.778677604663	1129.923749575206	635.683802358392	681.273695763956	1216.113222302976	589.513237963319	606.910192952361	1222.802867579352	502.225261604161	612.371448599283	1187.016754124381	737.683764704299	394.881398144790	1103.578446978592	624.476740725407	321.310053519880	1192.351056119515	538.206626617819	376.424744859834	1181.366893244125	450.344338401272	369.111004340183	1103.367515328650	398.273274951951	362.811288622426	956.009583281946	380.650876847671	317.345456488938	923.461749020669	253.919031422262	369.285255285361	1203.583591047081	411.987607302520	617.027584280048	1139.220795053099	301.415711941397	673.589951550811	1193.400668194348	211.312180877255	612.117812907301	1072.899843387430	43.674392062439	576.028953641577	1243.265592673681	98.705545619548	613.051888877003	1155.844376271600	37.450183084683	651.681935263643	1363.835915082685	46.221824522011	641.680352416285	727.985092494181	231.457439509511	412.667640588385	768.771054600678	169.442280153552	333.142787692506	873.986305586526	151.312124987533	350.653389971336	920.839249347937	31.064846234189	325.972390845613	1110.435732987990	1086.496969440122	218.679137795078	1363.347999689020	1051.719863714737	226.602224004462	984.350079901353	1100.988751525580	777.189891320817	985.175587276067	841.283439532295	785.014042126275	
40	55.612928571429	924.273322821650	1000.228652055239	525.338262153145	1087.881604210583	1434.166286776053	345.111581864059	1189.045710261009	1368.412029827645	509.472110585389	1097.433506711586	1435.549888827572	681.466498249500	1061.796702128985	1492.884868560504	501.570775186961	1150.099993166253	947.818699475261	650.963701872824	1143.559627250065	957.727996655682	375.477228681340	1205.417503563428	748.924827511232	630.547302823224	1125.120559459603	635.846811947435	683.189239000326	1210.827475141532	588.717048689300	608.991522662695	1216.094020726504	501.636694995591	613.985139949920	1191.193423262100	741.704123773661	396.709626794400	1111.557199987067	626.563213547534	322.636178633235	1203.101492210569	542.567034623675	377.601771449588	1194.080494547408	453.880974895995	370.223039948699	1115.461218636606	401.314149315471	363.887257838104	967.715066982685	386.366261260011	318.252348998246	932.986600904276	260.124139380060	370.173411160362	1196.511140467554	411.633003791824	618.318059933707	1131.472840253093	301.306423187599	674.543649035315	1185.159865803674	211.099847935278	612.790178305794	1063.864132979056	43.733232823971	576.189855401009	1234.312004822662	98.634402605238	613.257521583728	1146.795410759005	37.424091187031	651.785522721893	1354.829217476161	45.826023889337	641.879327205086	737.534648268361	242.453712539601	413.535363640121	776.654400515842	179.689867938615	333.627786533559	881.526060405155	158.206959144463	351.232976353668	924.312211000938	33.133914002037	325.465680491197	1104.143519324269	1085.462639350720	223.690495508644	1355.256316586672	1035.892505193919	229.464776689376	992.421401955186	1099.490765119809	780.953410370550	1006.080483561738	839.839215323322	788.645921673053	
